# xmcd
# 
# Track frame offsets:
#     150
#     11098
#     24710
#     34725
#     47708
#     59120
#     70923
#     82683
#     93268
#     103748
#     114705
#     125488
#     137020
#     146285
# 
# Disc length: 2104
# 
# Revision: 2
# Processed by: cddbd v1.5.2PL0 Copyright (c) Steve Scherf et al.
# Submitted via: fre:ac v1.0.17
# 
DISCID=c008360e
DTITLE=Patsy Cline - Patsy Cline GOLD
DYEAR=0
DGENRE=
TTITLE0=I Can See An Angel
TTITLE1=Life's Railway To Heaven
TTITLE2=Pick Me Up On Your Way Down
TTITLE3=Fingerprints
TTITLE4=The Heart You Break May Be Your Own
TTITLE5=Walking After Midnight
TTITLE6=If I Could Only Stay Asleep
TTITLE7=I Don't Wanta
TTITLE8=Honky Tonk Merry-Go-Round
TTITLE9=I Can't Forget
TTITLE10=I Cried All The Way To The Altar
TTITLE11=Let The Teardrops Fall
TTITLE12=Try Again
TTITLE13=Today, Tomorrow And Forever
EXTD=
EXTT0=
EXTT1=
EXTT2=
EXTT3=
EXTT4=
EXTT5=
EXTT6=
EXTT7=
EXTT8=
EXTT9=
EXTT10=
EXTT11=
EXTT12=
EXTT13=
PLAYORDER=
